<mxfile host="app.diagrams.net" agent="Mozilla/5.0 (Windows NT 10.0; Win64; x64) AppleWebKit/537.36 (KHTML, like Gecko) Chrome/130.0.0.0 Safari/537.36" version="24.8.0">
  <diagram name="Page-1" id="G4TJMVa3gHR0pwOPxoj3">
    <mxGraphModel dx="2045" dy="615" grid="1" gridSize="10" guides="1" tooltips="1" connect="1" arrows="1" fold="1" page="1" pageScale="1" pageWidth="850" pageHeight="1100" math="0" shadow="0">
      <root>
        <mxCell id="0" />
        <mxCell id="1" parent="0" />
        <mxCell id="d3EJbKjlaCxv_T8JcoaO-2" style="edgeStyle=orthogonalEdgeStyle;rounded=0;orthogonalLoop=1;jettySize=auto;html=1;entryX=0.5;entryY=0;entryDx=0;entryDy=0;fontSize=13;labelBackgroundColor=none;fontColor=default;" edge="1" parent="1" source="d3EJbKjlaCxv_T8JcoaO-1" target="d3EJbKjlaCxv_T8JcoaO-3">
          <mxGeometry relative="1" as="geometry">
            <mxPoint x="358.3349999999998" y="180" as="targetPoint" />
          </mxGeometry>
        </mxCell>
        <mxCell id="d3EJbKjlaCxv_T8JcoaO-1" value="Excel: Signup data" style="strokeWidth=2;html=1;shape=mxgraph.flowchart.start_1;whiteSpace=wrap;fontSize=12;labelBackgroundColor=none;" vertex="1" parent="1">
          <mxGeometry x="300" y="20" width="116.67" height="70" as="geometry" />
        </mxCell>
        <mxCell id="d3EJbKjlaCxv_T8JcoaO-4" style="edgeStyle=orthogonalEdgeStyle;rounded=0;orthogonalLoop=1;jettySize=auto;html=1;exitX=0.75;exitY=1;exitDx=0;exitDy=0;entryX=0.683;entryY=0.008;entryDx=0;entryDy=0;entryPerimeter=0;labelBackgroundColor=none;fontColor=default;" edge="1" parent="1" source="d3EJbKjlaCxv_T8JcoaO-3" target="d3EJbKjlaCxv_T8JcoaO-5">
          <mxGeometry relative="1" as="geometry">
            <mxPoint x="358.3333333333335" y="270" as="targetPoint" />
          </mxGeometry>
        </mxCell>
        <mxCell id="d3EJbKjlaCxv_T8JcoaO-29" style="edgeStyle=orthogonalEdgeStyle;rounded=0;orthogonalLoop=1;jettySize=auto;html=1;exitX=0;exitY=0.5;exitDx=0;exitDy=0;entryX=1;entryY=0.5;entryDx=0;entryDy=0;labelBackgroundColor=none;fontColor=default;" edge="1" parent="1" source="d3EJbKjlaCxv_T8JcoaO-47" target="d3EJbKjlaCxv_T8JcoaO-26">
          <mxGeometry relative="1" as="geometry" />
        </mxCell>
        <mxCell id="d3EJbKjlaCxv_T8JcoaO-3" value="DEV Machine&lt;div&gt;Use python script to extract data from excel&lt;/div&gt;" style="rounded=1;whiteSpace=wrap;html=1;absoluteArcSize=1;arcSize=14;strokeWidth=2;fontSize=12;labelBackgroundColor=none;" vertex="1" parent="1">
          <mxGeometry x="282.08" y="140" width="152.5" height="80" as="geometry" />
        </mxCell>
        <mxCell id="d3EJbKjlaCxv_T8JcoaO-7" style="edgeStyle=orthogonalEdgeStyle;rounded=0;orthogonalLoop=1;jettySize=auto;html=1;exitX=1;exitY=0.25;exitDx=0;exitDy=0;dashed=1;entryX=0;entryY=0.25;entryDx=0;entryDy=0;labelBackgroundColor=none;fontColor=default;" edge="1" parent="1" source="d3EJbKjlaCxv_T8JcoaO-5" target="d3EJbKjlaCxv_T8JcoaO-8">
          <mxGeometry relative="1" as="geometry">
            <mxPoint x="560" y="340" as="targetPoint" />
            <Array as="points">
              <mxPoint x="600" y="315" />
              <mxPoint x="600" y="315" />
            </Array>
          </mxGeometry>
        </mxCell>
        <mxCell id="d3EJbKjlaCxv_T8JcoaO-5" value="Boomi" style="rounded=1;whiteSpace=wrap;html=1;absoluteArcSize=1;arcSize=14;strokeWidth=2;labelBackgroundColor=none;" vertex="1" parent="1">
          <mxGeometry x="253.33" y="290" width="210" height="100" as="geometry" />
        </mxCell>
        <mxCell id="d3EJbKjlaCxv_T8JcoaO-15" style="edgeStyle=orthogonalEdgeStyle;rounded=0;orthogonalLoop=1;jettySize=auto;html=1;exitX=0.015;exitY=0.598;exitDx=0;exitDy=0;exitPerimeter=0;entryX=0.988;entryY=0.65;entryDx=0;entryDy=0;entryPerimeter=0;dashed=1;labelBackgroundColor=none;fontColor=default;" edge="1" parent="1" source="d3EJbKjlaCxv_T8JcoaO-8" target="d3EJbKjlaCxv_T8JcoaO-5">
          <mxGeometry relative="1" as="geometry">
            <mxPoint x="470" y="360" as="targetPoint" />
            <Array as="points">
              <mxPoint x="718" y="356" />
            </Array>
          </mxGeometry>
        </mxCell>
        <mxCell id="d3EJbKjlaCxv_T8JcoaO-8" value="MyBills received signup" style="rounded=1;whiteSpace=wrap;html=1;absoluteArcSize=1;arcSize=14;strokeWidth=2;labelBackgroundColor=none;" vertex="1" parent="1">
          <mxGeometry x="720" y="290" width="170" height="110" as="geometry" />
        </mxCell>
        <mxCell id="d3EJbKjlaCxv_T8JcoaO-17" value="&#xa;&lt;span style=&quot;color: rgb(0, 0, 0); font-family: Helvetica; font-size: 12px; font-style: normal; font-variant-ligatures: normal; font-variant-caps: normal; font-weight: 400; letter-spacing: normal; orphans: 2; text-align: center; text-indent: 0px; text-transform: none; widows: 2; word-spacing: 0px; -webkit-text-stroke-width: 0px; white-space: normal; background-color: rgb(251, 251, 251); text-decoration-thickness: initial; text-decoration-style: initial; text-decoration-color: initial; display: inline !important; float: none;&quot;&gt;Send signup request&lt;/span&gt;&#xa;&#xa;" style="text;html=1;align=center;verticalAlign=middle;whiteSpace=wrap;rounded=0;labelBackgroundColor=none;" vertex="1" parent="1">
          <mxGeometry x="362" y="245" width="126.67" height="30" as="geometry" />
        </mxCell>
        <mxCell id="d3EJbKjlaCxv_T8JcoaO-18" value="&lt;h1 style=&quot;forced-color-adjust: none; color: rgb(0, 0, 0); font-family: Helvetica; font-style: normal; font-variant-ligatures: normal; font-variant-caps: normal; letter-spacing: normal; orphans: 2; text-align: center; text-indent: 0px; text-transform: none; widows: 2; word-spacing: 0px; -webkit-text-stroke-width: 0px; white-space: normal; background-color: rgb(251, 251, 251); text-decoration-thickness: initial; text-decoration-style: initial; text-decoration-color: initial; margin-top: 0px;&quot;&gt;&lt;span style=&quot;forced-color-adjust: none; font-weight: 400; font-size: 13px;&quot;&gt;One signup per request&lt;/span&gt;&lt;div style=&quot;forced-color-adjust: none; font-weight: 400; text-wrap-mode: nowrap; font-size: 13px;&quot;&gt;&lt;div style=&quot;forced-color-adjust: none; text-wrap-mode: wrap;&quot;&gt;(500 accounts = 500 requests)&lt;/div&gt;&lt;/div&gt;&lt;/h1&gt;" style="text;whiteSpace=wrap;html=1;labelBackgroundColor=none;" vertex="1" parent="1">
          <mxGeometry x="500" y="280" width="210" height="50" as="geometry" />
        </mxCell>
        <mxCell id="d3EJbKjlaCxv_T8JcoaO-19" value="&lt;span style=&quot;color: rgb(0, 0, 0); font-family: Helvetica; font-size: 12px; font-style: normal; font-variant-ligatures: normal; font-variant-caps: normal; font-weight: 400; letter-spacing: normal; orphans: 2; text-align: center; text-indent: 0px; text-transform: none; widows: 2; word-spacing: 0px; -webkit-text-stroke-width: 0px; white-space: normal; background-color: rgb(251, 251, 251); text-decoration-thickness: initial; text-decoration-style: initial; text-decoration-color: initial; display: inline !important; float: none;&quot;&gt;return Application Number&lt;/span&gt;" style="text;whiteSpace=wrap;html=1;labelBackgroundColor=none;" vertex="1" parent="1">
          <mxGeometry x="520" y="340" width="170" height="40" as="geometry" />
        </mxCell>
        <mxCell id="d3EJbKjlaCxv_T8JcoaO-20" style="edgeStyle=orthogonalEdgeStyle;rounded=0;orthogonalLoop=1;jettySize=auto;html=1;exitX=0.25;exitY=0;exitDx=0;exitDy=0;entryX=0.156;entryY=1.021;entryDx=0;entryDy=0;entryPerimeter=0;dashed=1;labelBackgroundColor=none;fontColor=default;" edge="1" parent="1" source="d3EJbKjlaCxv_T8JcoaO-5" target="d3EJbKjlaCxv_T8JcoaO-3">
          <mxGeometry relative="1" as="geometry" />
        </mxCell>
        <mxCell id="d3EJbKjlaCxv_T8JcoaO-21" value="&lt;span style=&quot;color: rgb(0, 0, 0); font-family: Helvetica; font-size: 12px; font-style: normal; font-variant-ligatures: normal; font-variant-caps: normal; font-weight: 400; letter-spacing: normal; orphans: 2; text-align: center; text-indent: 0px; text-transform: none; widows: 2; word-spacing: 0px; -webkit-text-stroke-width: 0px; white-space: normal; background-color: rgb(251, 251, 251); text-decoration-thickness: initial; text-decoration-style: initial; text-decoration-color: initial; display: inline !important; float: none;&quot;&gt;return Application Number&lt;/span&gt;" style="text;whiteSpace=wrap;html=1;labelBackgroundColor=none;" vertex="1" parent="1">
          <mxGeometry x="210" y="240" width="170" height="40" as="geometry" />
        </mxCell>
        <mxCell id="d3EJbKjlaCxv_T8JcoaO-22" value="1" style="text;html=1;align=center;verticalAlign=middle;resizable=0;points=[];autosize=1;strokeColor=none;fillColor=none;labelBackgroundColor=none;" vertex="1" parent="1">
          <mxGeometry x="350" y="98" width="30" height="30" as="geometry" />
        </mxCell>
        <mxCell id="d3EJbKjlaCxv_T8JcoaO-23" value="2" style="text;html=1;align=center;verticalAlign=middle;resizable=0;points=[];autosize=1;strokeColor=none;fillColor=none;labelBackgroundColor=none;" vertex="1" parent="1">
          <mxGeometry x="395" y="220" width="30" height="30" as="geometry" />
        </mxCell>
        <mxCell id="d3EJbKjlaCxv_T8JcoaO-24" value="3" style="text;html=1;align=center;verticalAlign=middle;resizable=0;points=[];autosize=1;strokeColor=none;fillColor=none;labelBackgroundColor=none;" vertex="1" parent="1">
          <mxGeometry x="470" y="290" width="30" height="30" as="geometry" />
        </mxCell>
        <mxCell id="d3EJbKjlaCxv_T8JcoaO-26" value="PROD Bastion host" style="rounded=1;whiteSpace=wrap;html=1;absoluteArcSize=1;arcSize=14;strokeWidth=2;fontSize=12;labelBackgroundColor=none;" vertex="1" parent="1">
          <mxGeometry x="-80" y="20" width="152.5" height="80" as="geometry" />
        </mxCell>
        <mxCell id="d3EJbKjlaCxv_T8JcoaO-27" value="Actor" style="shape=umlActor;verticalLabelPosition=bottom;verticalAlign=top;html=1;outlineConnect=0;labelBackgroundColor=none;" vertex="1" parent="1">
          <mxGeometry x="434.58" y="150" width="30" height="60" as="geometry" />
        </mxCell>
        <mxCell id="d3EJbKjlaCxv_T8JcoaO-28" value="Actor" style="shape=umlActor;verticalLabelPosition=bottom;verticalAlign=top;html=1;outlineConnect=0;labelBackgroundColor=none;" vertex="1" parent="1">
          <mxGeometry x="72.5" y="25" width="30" height="60" as="geometry" />
        </mxCell>
        <mxCell id="d3EJbKjlaCxv_T8JcoaO-30" value="4" style="text;html=1;align=center;verticalAlign=middle;resizable=0;points=[];autosize=1;strokeColor=none;fillColor=none;labelBackgroundColor=none;" vertex="1" parent="1">
          <mxGeometry x="250" y="150" width="30" height="30" as="geometry" />
        </mxCell>
        <mxCell id="d3EJbKjlaCxv_T8JcoaO-48" value="" style="edgeStyle=orthogonalEdgeStyle;rounded=0;orthogonalLoop=1;jettySize=auto;html=1;exitX=0;exitY=0.5;exitDx=0;exitDy=0;entryX=1;entryY=0.5;entryDx=0;entryDy=0;labelBackgroundColor=none;fontColor=default;" edge="1" parent="1" source="d3EJbKjlaCxv_T8JcoaO-3" target="d3EJbKjlaCxv_T8JcoaO-47">
          <mxGeometry relative="1" as="geometry">
            <mxPoint x="282" y="180" as="sourcePoint" />
            <mxPoint x="73" y="60" as="targetPoint" />
          </mxGeometry>
        </mxCell>
        <mxCell id="d3EJbKjlaCxv_T8JcoaO-47" value="&lt;span style=&quot;text-align: left; text-wrap-mode: nowrap;&quot;&gt;Generate Bulk sign up&lt;/span&gt;&lt;div&gt;&lt;span style=&quot;text-align: left; text-wrap-mode: nowrap;&quot;&gt;&amp;nbsp;SQL script&lt;/span&gt;&lt;/div&gt;" style="text;html=1;align=center;verticalAlign=middle;whiteSpace=wrap;rounded=0;labelBackgroundColor=none;" vertex="1" parent="1">
          <mxGeometry x="150" y="45" width="60" height="30" as="geometry" />
        </mxCell>
        <mxCell id="d3EJbKjlaCxv_T8JcoaO-49" value="PROD DB" style="shape=cylinder3;whiteSpace=wrap;html=1;boundedLbl=1;backgroundOutline=1;size=15;labelBackgroundColor=none;" vertex="1" parent="1">
          <mxGeometry x="-53.75" y="275" width="100" height="120" as="geometry" />
        </mxCell>
        <mxCell id="d3EJbKjlaCxv_T8JcoaO-50" style="edgeStyle=orthogonalEdgeStyle;rounded=0;orthogonalLoop=1;jettySize=auto;html=1;entryX=0.5;entryY=0;entryDx=0;entryDy=0;entryPerimeter=0;labelBackgroundColor=none;fontColor=default;" edge="1" parent="1" source="d3EJbKjlaCxv_T8JcoaO-26" target="d3EJbKjlaCxv_T8JcoaO-49">
          <mxGeometry relative="1" as="geometry" />
        </mxCell>
        <mxCell id="d3EJbKjlaCxv_T8JcoaO-51" value="Run SQL Script to dumps&amp;nbsp;&lt;div&gt;sign up accounts to DB&lt;/div&gt;" style="edgeLabel;html=1;align=center;verticalAlign=middle;resizable=0;points=[];labelBackgroundColor=none;" vertex="1" connectable="0" parent="d3EJbKjlaCxv_T8JcoaO-50">
          <mxGeometry x="-0.1909" y="-2" relative="1" as="geometry">
            <mxPoint x="2" y="19" as="offset" />
          </mxGeometry>
        </mxCell>
      </root>
    </mxGraphModel>
  </diagram>
</mxfile>
